<?xml version="1.0" standalone="no"?><!DOCTYPE svg PUBLIC "-//W3C//DTD SVG 1.1//EN" "http://www.w3.org/Graphics/SVG/1.1/DTD/svg11.dtd"><svg class="icon" width="200px" height="200.00px" viewBox="0 0 1024 1024" version="1.1" xmlns="http://www.w3.org/2000/svg"><path  d="M842 62H182c-66 0-120 54-120 120v660c0 66 54 120 120 120h660c66 0 120-54 120-120V182c0-66-54-120-120-120z m30 750c0 33-27 60-60 60H212c-33 0-60-27-60-60V212c0-33 27-60 60-60h600c33 0 60 27 60 60v600zM737 467H557V287c0-24.8-20.2-45-45-45s-45 20.2-45 45v180H287c-24.8 0-45 20.2-45 45s20.2 45 45 45h180v180c0 24.8 20.2 45 45 45s45-20.2 45-45V557h180c24.8 0 45-20.2 45-45s-20.2-45-45-45z" /></svg>