<?xml version="1.0" standalone="no"?><!DOCTYPE svg PUBLIC "-//W3C//DTD SVG 1.1//EN" "http://www.w3.org/Graphics/SVG/1.1/DTD/svg11.dtd"><svg class="icon" width="200px" height="200.00px" fill="#ffffff" d="M813.498182 952.715636H288.581818a208.989091 208.989091 0 0 1-209.92-208.081454 205.777455 205.777455 0 0 1 27.927273-103.912727A310.667636 310.667636 0 0 1 0 406.458182 313.530182 313.530182 0 0 0 314.903273 94.301091a314.600727 314.600727 0 0 1 305.058909 234.519273A314.344727 314.344727 0 0 1 907.380364 558.545455a207.802182 207.802182 0 0 1-93.765819 394.24zM157.463273 744.727273a130.629818 130.629818 0 0 0 131.211636 130.048h524.776727a129.885091 129.885091 0 0 0 58.693819-246.434909l-31.464728-15.639273-9.309091-33.675636a235.869091 235.869091 0 0 0-219.252363-172.357819h-14.685091a236.055273 236.055273 0 0 0-216.692364 156.066909l-18.618182 52.061091H288.581818A130.629818 130.629818 0 0 0 157.463273 744.727273zM88.855273 474.600727a233.704727 233.704727 0 0 0 69.282909 107.054546 210.152727 210.152727 0 0 1 130.513454-45.102546h17.92a314.181818 314.181818 0 0 1 233.192728-201.658182 235.264 235.264 0 0 0-156.253091-152.459636 392.448 392.448 0 0 1-294.656 292.072727z" /></svg>