<?xml version="1.0" standalone="no"?><!DOCTYPE svg PUBLIC "-//W3C//DTD SVG 1.1//EN" "http://www.w3.org/Graphics/SVG/1.1/DTD/svg11.dtd"><svg class="icon" width="200px" height="200.00px" viewBox="0 0 1024 1024" version="1.1" xmlns="http://www.w3.org/2000/svg"><path d="M179.86048 348.48768v549.98528h2.36544C183.56224 939.72992 217.0368 972.8 258.42176 972.8h496.90112c41.40032 0 74.87488-33.07008 76.2112-74.32704h2.36544V348.48768H179.86048zM871.06048 244.43904h-141.2096V125.52192c0-41.05216-33.27488-74.32192-74.32704-74.32192H358.23104c-41.05216 0-74.32192 33.26976-74.32192 74.32192v118.912h-141.2096c-28.72832 0-52.02944 23.30112-52.02944 52.02944s23.30112 52.02432 52.02944 52.02432h728.36096c28.72832 0 52.02432-23.296 52.02432-52.02432s-23.296-52.02432-52.02432-52.02432z m-230.4-44.5952v44.59008H373.10464V184.97536a44.58496 44.58496 0 0 1 44.59008-44.59008h178.37056a44.58496 44.58496 0 0 1 44.5952 44.59008v14.86848zM328.50432 393.08288a44.58496 44.58496 0 0 0-44.59008 44.59008v401.34144a44.58496 44.58496 0 0 0 44.59008 44.5952 44.58496 44.58496 0 0 0 44.5952-44.5952V437.67808a44.58496 44.58496 0 0 0-44.5952-44.5952z m356.75136 0a44.58496 44.58496 0 0 0-44.5952 44.59008v401.34144c0 24.63744 19.95776 44.5952 44.5952 44.5952s44.5952-19.95776 44.5952-44.5952V437.67808a44.59008 44.59008 0 0 0-44.5952-44.5952z m-178.37568 0a44.57984 44.57984 0 0 0-44.59008 44.59008v401.34144c0 24.63744 19.95776 44.5952 44.59008 44.5952s44.5952-19.95776 44.5952-44.5952V437.67808a44.58496 44.58496 0 0 0-44.5952-44.5952zM351.2832 399.52896c-0.60928-0.36352-1.24928-0.68096-1.85856-1.01888a43.98592 43.98592 0 0 0-7.64928-3.19488c-0.8704-0.27648-1.72544-0.59392-2.62656-0.81408a43.60192 43.60192 0 0 0-10.63936-1.42336 44.45696 44.45696 0 0 0-31.52896 13.06112 45.03552 45.03552 0 0 0-9.56928 14.16704 45.312 45.312 0 0 0-2.59584 8.37632 44.8 44.8 0 0 0-0.90112 8.9856v401.34144c0 13.14816 5.80608 24.85248 14.86336 33.024V452.54144a44.58496 44.58496 0 0 1 44.59008-44.5952c8.49408 0 16.34304 2.49856 23.11168 6.62016a45.40416 45.40416 0 0 0-15.19616-15.03744z m356.74624 0c-0.60928-0.36352-1.23392-0.68096-1.85856-1.01888a43.98592 43.98592 0 0 0-7.64928-3.19488c-0.8704-0.27648-1.72544-0.59392-2.62656-0.81408a43.60192 43.60192 0 0 0-10.63936-1.42336 44.45696 44.45696 0 0 0-31.52896 13.06112 44.93824 44.93824 0 0 0-9.56416 14.16704 44.93824 44.93824 0 0 0-2.60096 8.37632 44.8 44.8 0 0 0-0.90112 8.9856v401.34144c0 13.14816 5.80608 24.85248 14.86336 33.024V452.54144a44.58496 44.58496 0 0 1 44.5952-44.5952c8.48896 0 16.34304 2.49856 23.11168 6.62016a45.37344 45.37344 0 0 0-15.20128-15.03744z m-178.37568 0c-0.60928-0.36352-1.24416-0.68096-1.85344-1.01888a44.32384 44.32384 0 0 0-7.64928-3.19488c-0.87552-0.27648-1.73056-0.59392-2.63168-0.81408A43.60192 43.60192 0 0 0 506.88 393.07776a44.45696 44.45696 0 0 0-31.52896 13.06112 44.4672 44.4672 0 0 0-13.06112 31.52896v401.34144c0 13.14816 5.80608 24.85248 14.86336 33.024V452.54144a44.58496 44.58496 0 0 1 44.5952-44.5952c8.48896 0 16.34304 2.49856 23.11168 6.62016a45.43488 45.43488 0 0 0-15.2064-15.03744zM179.86048 348.48768h654.03904v29.73184H179.86048zM417.69472 140.38528H506.88V51.2H358.23616c-41.05216 0-74.32192 33.26976-74.32192 74.32192v118.91712H142.69952c-28.72832 0-52.02944 23.30112-52.02944 52.02944s23.30112 52.02432 52.02944 52.02432h37.16096v549.98528h2.36544C183.56224 939.72992 217.0368 972.8 258.42176 972.8H506.88V244.43904H373.09952V184.98048a44.5952 44.5952 0 0 1 44.5952-44.5952z" /></svg>