<?xml version="1.0" standalone="no"?><!DOCTYPE svg PUBLIC "-//W3C//DTD SVG 1.1//EN" "http://www.w3.org/Graphics/SVG/1.1/DTD/svg11.dtd"><svg class="icon" width="200px" height="200.00px" viewBox="0 0 1024 1024" version="1.1" xmlns="http://www.w3.org/2000/svg"><path  d="M773.82 338.84L625.06 194.28v144.56z m-220.1 69.33V165.51H268.47q-15 0-25.34 10.06a33 33 0 0 0-10.31 24.61v624a32.84 32.84 0 0 0 10.31 24.61q10.29 10.05 25.34 10.05h499.2q15.08 0 25.37-10.05a33 33 0 0 0 10.27-24.61v-416z m-285.23-312h356.57l249.58 242.67v485.33c0 28.65-10.45 53.27-31.33 73.49s-46.09 30.5-75.65 30.5H268.47q-44.25 0-75.62-30.5c-20.9-20.22-31.34-44.84-31.34-73.49v-624q0-43 31.34-73.49t75.62-30.51z m0 0" /></svg>