<?xml version="1.0" standalone="no"?><!DOCTYPE svg PUBLIC "-//W3C//DTD SVG 1.1//EN" "http://www.w3.org/Graphics/SVG/1.1/DTD/svg11.dtd"><svg class="icon" width="200px" height="200.00px" viewBox="0 0 1024 1024" version="1.1" xmlns="http://www.w3.org/2000/svg"><path  d="M891.68 875.63H134.32c-19.22 0.7-35.41-14.2-36.31-33.41v-545.3c0.9-19.21 17.1-34.11 36.31-33.41h757.36c19.22-0.7 35.41 14.2 36.31 33.41v545.45c-1.03 19.13-17.17 33.91-36.31 33.26zM488.77 359.39H98.01V184c0-18.99 15.4-34.39 34.39-34.39h267.41c15.19-0.04 28.6 9.93 32.94 24.48l56.02 185.3zM891.68 875.79H134.32c-20.46-0.48-36.69-17.4-36.31-37.87V348.6c-0.38-20.46 15.85-37.39 36.31-37.87h757.36c20.46 0.48 36.69 17.4 36.31 37.87v489.38c0.29 20.41-15.9 37.27-36.31 37.81z" /></svg>