<?xml version="1.0" standalone="no"?><!DOCTYPE svg PUBLIC "-//W3C//DTD SVG 1.1//EN" "http://www.w3.org/Graphics/SVG/1.1/DTD/svg11.dtd"><svg class="icon" width="200px" height="200.00px" viewBox="0 0 1024 1024" version="1.1" xmlns="http://www.w3.org/2000/svg"><path  d="M206.336 894.976c-70.144 0-110.08-39.936-110.08-110.08v-192.512c0-11.776 9.728-21.504 21.504-21.504 32.256 0 70.144-4.608 70.144 26.112v177.664c0 15.36 12.288 27.136 27.136 27.136h593.92c15.36 0 27.648-12.288 27.648-27.648v-182.272c0-11.776 9.728-21.504 21.504-21.504 32.256 0 70.144-4.608 70.144 26.112v193.024c0 70.144-34.304 104.448-104.448 104.448l-617.472 1.024zM512 662.016c-23.552 0-45.568-18.944-45.568-43.008V135.68c0-23.552 22.016-26.112 45.568-26.112s45.568 2.048 45.568 26.112v483.328c0 23.552-22.016 43.008-45.568 43.008zM509.952 677.888c-11.264 0-22.528-4.608-30.72-12.288L281.6 467.968c-20.992-20.992-19.968-40.96 0-60.928s40.96-25.088 60.928-5.12l166.912 166.912L686.08 392.192c14.848-14.848 36.352-5.632 53.248 11.264s24.064 38.4 7.68 54.784l-207.36 206.336c-7.68 7.68-18.944 12.288-30.72 12.288 1.024 0.512 1.024 1.024 1.024 1.024z" /></svg>