<?xml version="1.0" standalone="no"?><!DOCTYPE svg PUBLIC "-//W3C//DTD SVG 1.1//EN" "http://www.w3.org/Graphics/SVG/1.1/DTD/svg11.dtd"><svg class="icon" width="200px" height="199.61px" viewBox="0 0 1026 1024" version="1.1" xmlns="http://www.w3.org/2000/svg"><path  d="M473.649571 983.226182v-141.195637l-11.264 11.473455a39.330909 39.330909 0 1 1-56.203636-55.016727l77.14909-78.615273a39.354182 39.354182 0 0 1 27.717819-11.799273H119.299025a39.307636 39.307636 0 1 1 0-78.615272h101.632a314.763636 314.763636 0 1 1 583.959273 0H906.522298a39.307636 39.307636 0 1 1 0 78.615272H511.653935a39.284364 39.284364 0 0 1 27.205818 11.240728l80.314182 78.615272a39.330909 39.330909 0 1 1-55.109819 56.133818l-11.822545-11.636363v140.706909a39.354182 39.354182 0 0 1-78.708364 0z m243.944727-353.745455a235.636364 235.636364 0 0 0-123.089454-339.106909 235.938909 235.938909 0 0 0-287.301819 336.989091l-3.746909 2.117818z m189.021091-78.615272a39.307636 39.307636 0 1 1 0-78.615273h78.731636a39.307636 39.307636 0 1 1 0 78.615273z m-865.931636 0a39.307636 39.307636 0 1 1 0-78.615273h78.708363a39.307636 39.307636 0 1 1 0 78.615273z m722.804363-289.419637a39.307636 39.307636 0 0 1 0-55.598545l55.668364-55.575273a39.330909 39.330909 0 0 1 55.645091 55.575273l-55.645091 55.598545a39.400727 39.400727 0 0 1-55.668364 0z m-556.613818 0L151.205935 205.847273a39.330909 39.330909 0 0 1 55.668363-55.575273l55.645091 55.575273a39.330909 39.330909 0 0 1-55.645091 55.598545zM473.649571 118.528V39.912727a39.354182 39.354182 0 0 1 78.708364 0v78.615273a39.354182 39.354182 0 0 1-78.708364 0z" /></svg>