<?xml version="1.0" standalone="no"?><!DOCTYPE svg PUBLIC "-//W3C//DTD SVG 1.1//EN" "http://www.w3.org/Graphics/SVG/1.1/DTD/svg11.dtd"><svg class="icon" width="200px" height="200.00px" viewBox="0 0 1024 1024" version="1.1" xmlns="http://www.w3.org/2000/svg"><path  d="M427.2 472.432l128.006-42.876 41.416 123.646-128.008 42.876zM427.2 472.432l128.006-42.876 41.416 123.646-128.008 42.876zM951.8 380C852.8 50 710-26.8 380 72.2S-26.8 314 72.2 644 314 1050.8 644 951.8 1050.8 710 951.8 380z m-166.6 214.2l-62.2 20.8 21.4 64.4c8.4 26-5.4 54.4-31.4 63-5.4 1.6-11.6 3-16.8 2.4-20-0.8-39.2-13.8-46-33.8l-21.4-64.4-128.2 43L522 754c8.4 26-5.4 54.4-31.4 63-5.4 1.6-11.6 3-16.8 2.4-20-0.8-39.2-13.8-46-33.8L406 720.8l-62 20.6c-5.4 1.6-11.6 3-16.8 2.4-20-0.8-39.2-13.8-46-33.8-8.4-26 5.4-54.4 31.4-63l62.2-20.8-41.4-123.6-62.2 20.8c-5.4 1.6-11.6 3-16.8 2.4-20-0.8-39.2-13.8-46-33.8-8.4-26 5.4-54.4 31.4-63l62.2-20.8-21.8-64.2c-8.4-26 5.4-54.4 31.4-63 26-8.4 54.4 5.4 63 31.4l21.4 64.4 128.2-43-21.4-64.4c-8.4-26 5.4-54.4 31.4-63 26-8.4 54.4 5.4 63 31.4l21.4 64.4 62.2-20.8c26-8.4 54.4 5.4 63 31.4 8.4 26-5.4 54.4-31.4 63l-62.2 20.8 41.4 123.6 62.2-20.8c26-8.4 54.4 5.4 63 31.4 8.4 26.4-5.4 54.8-31.6 63.4z" /></svg>