<?xml version="1.0" standalone="no"?><!DOCTYPE svg PUBLIC "-//W3C//DTD SVG 1.1//EN" "http://www.w3.org/Graphics/SVG/1.1/DTD/svg11.dtd"><svg class="icon" width="200px" height="200.00px" viewBox="0 0 1024 1024" version="1.1" xmlns="http://www.w3.org/2000/svg"><path  d="M280.531 511.27c-0.094 42.657-34.5 77.063-77.25 76.97-42.562-0.094-77.156-34.688-77.062-77.344 0-42.469 34.781-77.063 77.437-76.969 42.563 0.094 76.875 34.594 76.875 77.344z m540.938-77.25c42.656 0 77.343 34.5 77.343 77.063 0.094 42.563-34.5 77.25-77.156 77.25-42.75 0-77.25-34.312-77.25-77.062s34.313-77.25 77.063-77.25zM512.375 588.334c-42.563 0-77.438-34.968-77.25-77.25 0.281-42.656 34.781-77.062 77.438-77.062 42.562 0 77.343 34.781 77.156 77.25-0.094 42.562-34.688 77.062-77.344 77.062z" /></svg>