<?xml version="1.0" standalone="no"?><!DOCTYPE svg PUBLIC "-//W3C//DTD SVG 1.1//EN" "http://www.w3.org/Graphics/SVG/1.1/DTD/svg11.dtd"><svg class="icon" width="200px" height="200.00px" viewBox="0 0 1024 1024" version="1.1" xmlns="http://www.w3.org/2000/svg"><path  d="M572.1 962H409.9C234.8 962 92.4 819.6 92.4 644.6c0-91.7 74.6-166.3 166.3-166.3h28.1V197.7c0-73.5 59.7-133.3 133.1-133.3 35.9 0 69.4 13.9 94.3 39.2 25 25 39 58.5 39 94.1v158.6h125C816 356.3 928 468.4 928 606.1 928 802.4 768.3 962 572.1 962zM258.6 568.1c-42.2 0-76.5 34.3-76.5 76.5 0 125.6 102.2 227.7 227.7 227.7h162.3c146.7 0 266.1-119.4 266.1-266.1 0-88.3-71.8-160.1-160.1-160.1H508.2c-24.8 0-44.9-20.1-44.9-44.9V197.7c0-14.9-7-25-12.9-30.9-8.2-8.3-19-12.7-30.7-12.7-23.9 0-43.3 19.5-43.3 43.6v325.5c0 24.8-20.1 44.9-44.9 44.9h-72.9zM331.6 671.6c-24.8 0-44.9-20.1-44.9-44.9V523.2c0-24.8 20.1-44.9 44.9-44.9s44.9 20.1 44.9 44.9v103.5c0 24.8-20.1 44.9-44.9 44.9z" /></svg>