<?xml version="1.0" standalone="no"?><!DOCTYPE svg PUBLIC "-//W3C//DTD SVG 1.1//EN" "http://www.w3.org/Graphics/SVG/1.1/DTD/svg11.dtd"><svg class="icon" width="200px" height="200.00px" viewBox="0 0 1024 1024" version="1.1" xmlns="http://www.w3.org/2000/svg"><path  d="M778.64 265.87c33.98 0 61.53 27.55 61.53 61.53v451.24c0.14 33.98-27.3 61.64-61.28 61.78-33.98 0.14-61.64-27.3-61.78-61.28V327.4c0-33.98 27.55-61.53 61.53-61.53zM532.51 470.98c33.98 0 61.54 27.55 61.54 61.53v246.13c0 33.98-27.55 61.53-61.53 61.53s-61.53-27.55-61.53-61.53V532.51c-0.01-33.98 27.54-61.53 61.52-61.53zM286.38 635.07c33.98 0 61.53 27.55 61.53 61.53v82.04c0.01 33.98-27.53 61.54-61.51 61.55-33.98 0.01-61.54-27.53-61.55-61.51V696.6c0-33.98 27.55-61.53 61.53-61.53z" /></svg>