<?xml version="1.0" standalone="no"?><!DOCTYPE svg PUBLIC "-//W3C//DTD SVG 1.1//EN" "http://www.w3.org/Graphics/SVG/1.1/DTD/svg11.dtd"><svg class="icon" width="200px" height="200.00px" viewBox="0 0 1024 1024" version="1.1" xmlns="http://www.w3.org/2000/svg"><path  d="M511.697455 747.380364a235.822545 235.822545 0 1 0-236.171637-235.822546 235.985455 235.985455 0 0 0 236.171637 235.822546z m0 78.615272a314.437818 314.437818 0 1 1 314.903272-314.437818 314.647273 314.647273 0 0 1-314.903272 314.437818zM472.343273 39.912727a39.354182 39.354182 0 0 1 78.708363 0v78.615273a39.354182 39.354182 0 0 1-78.708363 0z m0 864.674909a39.354182 39.354182 0 0 1 78.708363 0v78.615273a39.354182 39.354182 0 0 1-78.708363 0zM817.850182 150.248727a39.330909 39.330909 0 1 1 55.645091 55.575273l-55.645091 55.575273a39.330909 39.330909 0 0 1-55.668364-55.575273zM205.544727 761.669818a39.330909 39.330909 0 1 1 55.645091 55.575273l-55.645091 55.575273a39.330909 39.330909 0 0 1-55.668363-55.575273z m0-611.421091A39.330909 39.330909 0 1 0 149.876364 205.824l55.668363 55.575273a39.330909 39.330909 0 0 0 55.645091-55.575273z m612.305455 611.421091a39.330909 39.330909 0 1 0-55.668364 55.575273l55.668364 55.575273a39.330909 39.330909 0 0 0 55.645091-55.575273z m166.190545-289.442909a39.307636 39.307636 0 1 1 0 78.615273h-78.708363a39.307636 39.307636 0 1 1 0-78.615273z m-865.954909 0a39.307636 39.307636 0 1 1 0 78.615273H39.354182a39.307636 39.307636 0 1 1 0-78.615273z m0 0" /></svg>