<?xml version="1.0" standalone="no"?><!DOCTYPE svg PUBLIC "-//W3C//DTD SVG 1.1//EN" "http://www.w3.org/Graphics/SVG/1.1/DTD/svg11.dtd"><svg class="icon" width="200px" height="200.00px" viewBox="0 0 1024 1024" version="1.1" xmlns="http://www.w3.org/2000/svg"><path  d="M 490.352 162.153 c 182.98 0 331.847 148.866 331.847 331.848 c 0 182.98 -148.866 331.847 -331.847 331.847 c -182.982 0 -331.848 -148.866 -331.848 -331.847 c 0 -182.982 148.865 -331.848 331.848 -331.848 m 0 -90.504 C 257.095 71.649 68 260.744 68 494.001 c 0 233.255 189.095 422.35 422.352 422.35 c 233.256 0 422.35 -189.095 422.35 -422.35 c -0.001 -233.257 -189.095 -422.352 -422.35 -422.352 ZM 922.748 916.336 c -11.578 0 -23.155 -4.418 -31.995 -13.257 L 770.081 782.407 c -17.676 -17.661 -17.676 -46.327 0 -63.988 c 17.677 -17.677 46.314 -17.677 63.99 0 l 120.672 120.672 c 17.676 17.661 17.676 46.327 0 63.988 c -8.839 8.839 -20.416 13.257 -31.995 13.257 Z" /></svg>