<?xml version="1.0" standalone="no"?><!DOCTYPE svg PUBLIC "-//W3C//DTD SVG 1.1//EN" "http://www.w3.org/Graphics/SVG/1.1/DTD/svg11.dtd"><svg class="icon" width="200px" height="200.00px" viewBox="0 0 1024 1024" version="1.1" xmlns="http://www.w3.org/2000/svg"><path  d="M205.18181848 90.125h153.40909076a115.05681848 115.05681848 0 0 1 115.05681766 115.05681848v153.40909076a115.05681848 115.05681848 0 0 1-115.05681765 115.05681766H205.18181848a115.05681848 115.05681848 0 0 1-115.05681848-115.05681765V205.18181848a115.05681848 115.05681848 0 0 1 115.05681848-115.05681848z m0 61.36363613A53.69318152 53.69318152 0 0 0 151.48863613 205.18181848v153.40909076A53.69318152 53.69318152 0 0 0 205.18181848 412.28409076h153.40909076A53.69318152 53.69318152 0 0 0 412.28409076 358.59090925V205.18181848A53.69318152 53.69318152 0 0 0 358.59090925 151.48863613H205.18181848zM205.18181848 550.3522731h153.40909076a115.05681848 115.05681848 0 0 1 115.05681766 115.05681765v153.40909077a115.05681848 115.05681848 0 0 1-115.05681765 115.05681848H205.18181848a115.05681848 115.05681848 0 0 1-115.05681848-115.05681848v-153.40909077a115.05681848 115.05681848 0 0 1 115.05681848-115.05681765z m0 61.36363615A53.69318152 53.69318152 0 0 0 151.48863613 665.40909075v153.40909077A53.69318152 53.69318152 0 0 0 205.18181848 872.51136387h153.40909076A53.69318152 53.69318152 0 0 0 412.28409076 818.81818152v-153.40909076A53.69318152 53.69318152 0 0 0 358.59090925 611.71590924H205.18181848zM665.40909075 90.125h153.40909077a115.05681848 115.05681848 0 0 1 115.05681848 115.05681848v153.40909076a115.05681848 115.05681848 0 0 1-115.05681848 115.05681766h-153.40909076a115.05681848 115.05681848 0 0 1-115.05681766-115.05681765V205.18181848a115.05681848 115.05681848 0 0 1 115.05681765-115.05681848z m1e-8 61.36363613A53.69318152 53.69318152 0 0 0 611.71590924 205.18181848v153.40909076A53.69318152 53.69318152 0 0 0 665.40909075 412.28409076h153.40909077A53.69318152 53.69318152 0 0 0 872.51136387 358.59090925V205.18181848A53.69318152 53.69318152 0 0 0 818.81818152 151.48863613h-153.40909076zM607.88068152 638.5625h268.46590923a30.68181848 30.68181848 0 1 0 1e-8-61.36363613h-268.46590924a30.68181848 30.68181848 0 1 0 0 61.36363613zM607.88068152 772.79545462h191.76136386a30.68181848 30.68181848 0 1 0 0-61.36363614h-191.76136386a30.68181848 30.68181848 0 1 0 0 61.36363614zM607.88068152 907.02840924h115.05681848a30.68181848 30.68181848 0 1 0 0-61.36363614h-115.05681848a30.68181848 30.68181848 0 1 0 0 61.36363615z" /></svg>